<svg version="1.1" id="Layer_1" xmlns="http://www.w3.org/2000/svg" xmlns:xlink="http://www.w3.org/1999/xlink" x="0px" y="0px" viewBox="0 0 120 120" style="enable-background:new 0 0 120 120;" xml:space="preserve">
  <style type="text/css">.st0 {fill: #FFFFFF;}</style><g><path class="st0" d="M112.1,19.8c-3.8-8.4-10.6-14.6-19.3-17.3C89.6,1.5,86.2,1,82.7,1C75,1,66.9,3.4,59.5,8c0,0,0,0-0.1,0
      C53,3.9,45.9,1.6,39,1.1C38.1,1,37.2,1,36.3,1c-3.5,0-7,0.5-10.2,1.5c-8.6,2.7-15.5,8.9-19.3,17.3C2.1,30.5,2.5,43.7,8.1,56.1
      c2,4.4,4.5,8.6,7.6,12.3c-1.2,4.7-1.8,9.7-1.8,14.7c0,22.6,13.3,32.3,13.8,32.7c2.9,2.1,6.1,3.2,9.2,3.2c6.4,0,11.4-4.7,12.9-11.9
      c1.8-8.8,6.3-18.6,9.7-18.6c3.5,0,7.9,9.8,9.7,18.6c1.5,7.2,6.5,11.9,12.9,11.9c3.1,0,6.2-1.1,9.2-3.2c0.6-0.4,13.8-10.1,13.8-32.7
      c0-5.1-0.6-10-1.8-14.7c3.1-3.8,5.6-7.9,7.6-12.3C116.4,43.7,116.9,30.5,112.1,19.8z M103.7,52.9c-1.7,3.8-3.9,7.4-6.5,10.6
      l-2.5,3.1l1,3.8c1,4.1,1.6,8.4,1.6,12.8c0,18.3-10.1,26-10.6,26.3c-1.6,1.1-3.2,1.7-4.6,1.7c-3.8,0-4.9-4.3-5.2-5.7
      c-1.2-5.8-6-24.8-17.4-24.8c-11.7,0-16.5,20.7-17.4,24.8c-0.3,1.3-1.4,5.7-5.2,5.7c-1.4,0-3.1-0.6-4.6-1.7
      c-0.4-0.3-10.6-8-10.6-26.3c0-4.4,0.5-8.7,1.6-12.8l1-3.8l-2.5-3.1c-2.6-3.3-4.8-6.8-6.5-10.6C10.6,42.5,10.1,31.6,14,23
      c2.9-6.4,8-11,14.5-13.1c2.4-0.8,5.1-1.2,7.8-1.2c6.3,0,13,2.1,19,5.8l0.9,0.6c3.5,2.5,6.7,5.7,9.5,9.4c0.5,0.6,1,1.1,1.7,1.3
      c1.2,0.5,2.6,0.3,3.8-0.5c1.7-1.3,2.1-3.7,0.8-5.5c-1.8-2.4-3.8-4.7-6-6.7c5.4-2.8,11.2-4.4,16.6-4.4c2.8,0,5.4,0.4,7.8,1.2
      C97,12,102.1,16.7,105,23C108.8,31.6,108.4,42.5,103.7,52.9z" />
    <circle class="st0" cx="46" cy="37.5" r="5.8" />
    <path class="st0" d="M73,31.7c-3.2,0-5.8,2.6-5.8,5.8c0,3.2,2.6,5.8,5.8,5.8c3.2,0,5.8-2.6,5.8-5.8C78.8,34.3,76.2,31.7,73,31.7z" />
    <path class="st0" d="M73.4,59.8c-7.7,7.7-20.2,7.7-27.9,0c-1.1-1.1-3-1.1-4.1,0c-1.1,1.1-1.1,3,0,4.1c5,5,11.5,7.5,18.1,7.5
      c6.5,0,13.1-2.5,18.1-7.5c1.1-1.1,1.1-3,0-4.1C76.4,58.7,74.6,58.7,73.4,59.8z" />
  </g>
</svg>