<?xml version="1.0" standalone="no"?>
<!DOCTYPE svg PUBLIC "-//W3C//DTD SVG 20010904//EN"
 "http://www.w3.org/TR/2001/REC-SVG-20010904/DTD/svg10.dtd">
<svg version="1.0" xmlns="http://www.w3.org/2000/svg"
 width="506.000000pt" height="506.000000pt" viewBox="0 0 506.000000 506.000000"
 preserveAspectRatio="xMidYMid meet">
<metadata>
Created by potrace 1.11, written by Peter Selinger 2001-2013
</metadata>
<g transform="translate(0.000000,506.000000) scale(0.100000,-0.100000)"
fill="#000000" stroke="none">
<path d="M2870 4523 c-14 -2 -74 -10 -135 -19 -124 -17 -327 -66 -371 -89
l-29 -15 30 0 c17 0 57 4 90 10 191 30 525 40 709 20 131 -13 279 -44 368 -76
74 -27 239 -107 261 -128 7 -6 29 -24 50 -39 56 -43 168 -164 190 -207 8 -14
27 -50 44 -80 28 -51 81 -185 73 -185 -1 0 4 -13 10 -29 26 -70 41 -330 26
-451 -12 -89 -27 -179 -36 -210 -5 -16 -11 -41 -14 -55 -2 -14 -20 -74 -40
-135 -19 -60 -36 -114 -37 -120 -2 -9 -21 -52 -84 -191 -13 -29 -27 -69 -31
-90 -5 -22 -9 -41 -9 -44 -1 -3 -5 -18 -9 -35 -52 -206 -151 -458 -305 -776
-33 -70 -65 -139 -71 -154 -10 -26 -9 -27 7 -14 36 28 300 296 353 358 30 35
62 72 70 81 20 21 99 118 130 160 14 18 30 38 35 44 17 18 163 245 211 328 40
68 139 279 142 301 0 4 10 33 22 65 27 70 69 231 76 291 3 24 9 67 15 94 22
116 2 502 -28 551 -4 6 -8 16 -10 21 -8 40 -14 56 -33 105 -24 63 -110 210
-122 210 -4 0 -8 5 -8 10 0 27 -154 177 -245 237 -189 127 -420 209 -696 248
-96 14 -528 20 -599 8z"/>
<path d="M1032 4329 c-134 -25 -247 -124 -322 -282 -44 -95 -102 -261 -115
-332 -36 -205 -52 -437 -33 -492 4 -13 3 -25 -3 -28 -5 -4 -7 -10 -4 -14 2 -5
7 -37 10 -72 8 -100 19 -197 30 -269 17 -109 26 -160 34 -187 5 -18 8 -33 6
-33 -3 0 0 -11 5 -25 5 -14 12 -36 14 -48 19 -95 132 -433 183 -547 12 -25 35
-79 53 -120 34 -77 141 -288 179 -350 11 -19 24 -42 28 -50 19 -42 263 -422
283 -440 3 -3 17 -21 30 -40 181 -262 385 -454 495 -464 41 -4 67 12 88 56 30
63 27 14 41 803 3 132 7 263 10 290 14 122 40 255 62 317 7 21 10 38 6 38 -14
0 -102 -94 -136 -144 -72 -109 -130 -267 -152 -414 -3 -20 -8 -46 -12 -57 -3
-11 -6 -22 -7 -25 -7 -36 -32 -84 -56 -104 -45 -38 -81 -28 -177 49 -33 27
-242 311 -242 330 0 2 -21 39 -46 82 -91 153 -163 300 -208 423 -42 119 -108
314 -112 335 -1 6 -10 37 -20 70 -20 67 -19 64 -32 125 -6 25 -13 56 -16 70
-18 80 -23 106 -31 171 -4 30 -8 56 -10 59 -6 10 -19 224 -18 310 0 118 17
325 30 360 2 8 7 31 9 50 7 53 32 144 54 194 28 67 59 105 110 134 38 23 56
27 115 26 67 -2 89 -8 205 -61 65 -30 240 -153 380 -266 91 -74 332 -201 465
-246 200 -67 378 -65 598 6 26 8 47 18 47 22 0 3 -30 6 -66 5 -134 -1 -278 31
-419 94 -67 30 -123 61 -264 147 -20 12 -224 166 -231 175 -14 16 -195 144
-266 188 -108 67 -274 146 -351 166 -73 20 -161 25 -221 15z"/>
<path d="M4625 4321 c-15 -14 -2 -31 25 -31 l30 0 0 -91 c0 -88 1 -90 23 -87
21 3 22 7 22 88 0 68 3 85 15 86 8 1 21 2 28 3 6 0 12 9 12 19 0 15 -11 17
-75 18 -42 0 -78 -2 -80 -5z"/>
<path d="M4826 4313 c-3 -10 -5 -60 -5 -111 1 -89 2 -93 22 -90 20 3 21 9 20
83 0 44 1 76 2 70 2 -5 14 -43 25 -82 19 -61 25 -73 43 -73 19 0 26 13 49 83
l27 82 -2 -80 c-2 -76 -1 -80 21 -83 23 -3 23 -3 20 104 -3 103 -4 107 -25
109 -33 2 -38 -4 -62 -82 -12 -40 -24 -73 -26 -73 -2 0 -14 33 -26 73 -11 39
-22 73 -24 75 -1 2 -14 5 -28 8 -18 3 -27 -1 -31 -13z"/>
<path d="M3355 4062 c-2 -2 -27 -6 -56 -8 -29 -3 -127 -21 -218 -41 -314 -69
-407 -81 -601 -78 -96 2 -188 6 -205 9 -16 4 -52 11 -80 16 -27 5 -61 12 -75
14 -98 21 -97 25 -15 -41 157 -126 349 -191 570 -193 173 -1 262 13 530 85 77
20 174 20 236 0 53 -18 113 -69 146 -125 90 -150 112 -469 58 -805 -14 -82
-19 -113 -41 -211 -13 -61 -28 -124 -34 -140 -6 -16 -11 -30 -10 -32 1 -1 -11
-42 -25 -90 -69 -222 -186 -466 -320 -665 -138 -207 -148 -220 -202 -274 -61
-62 -98 -70 -137 -28 -23 24 -86 198 -86 234 0 9 -4 21 -8 27 -5 5 -17 32 -27
59 -10 28 -26 62 -36 77 -11 14 -19 29 -19 33 0 31 -136 167 -198 196 -54 27
-160 36 -205 18 -89 -35 -147 -139 -162 -290 -3 -30 -8 -64 -10 -76 -3 -13 -4
-23 -2 -23 3 0 33 13 69 29 128 58 217 58 296 0 60 -44 83 -97 106 -239 4 -19
8 -46 11 -59 4 -23 7 -53 20 -206 3 -27 7 -95 10 -150 9 -191 24 -283 49 -317
7 -10 26 -20 42 -24 36 -7 99 33 165 103 44 48 286 342 412 503 37 47 71 90
75 95 17 22 116 203 167 306 112 226 195 456 262 724 14 57 17 72 27 128 2 12
11 60 20 107 8 47 18 108 21 135 4 28 8 61 10 75 5 33 15 123 20 185 6 65 7
204 2 230 -4 18 -15 92 -22 150 -2 11 -10 52 -19 90 -65 280 -165 422 -331
471 -51 14 -171 25 -180 16z"/>
<path d="M353 2813 c-21 -32 -41 -60 -44 -63 -25 -20 -154 -293 -204 -430 -78
-215 -115 -526 -85 -710 6 -41 13 -84 15 -95 6 -43 36 -144 55 -188 12 -26 21
-49 21 -52 -1 -10 63 -121 103 -180 54 -82 196 -221 281 -277 190 -124 400
-197 660 -227 103 -12 395 -15 395 -3 0 4 -23 32 -51 62 -66 71 -197 244 -217
287 -13 26 -22 33 -46 34 -17 0 -38 2 -46 3 -8 2 -44 6 -80 10 -289 31 -540
147 -700 323 -64 71 -77 87 -101 135 -12 24 -24 45 -28 48 -8 7 -47 103 -66
165 -39 128 -55 358 -35 507 5 40 12 89 14 108 6 44 54 238 66 265 22 49 39
95 34 95 -3 0 3 15 14 33 12 17 21 35 22 39 0 4 7 23 15 42 8 20 15 40 15 45
0 5 9 26 21 45 34 58 13 41 -28 -21z"/>
<path d="M1505 2826 c-69 -22 -155 -80 -155 -104 0 -5 -7 -15 -15 -22 -16 -13
-42 -87 -33 -95 3 -3 26 16 52 42 l47 46 57 -54 c31 -30 59 -57 62 -60 22 -25
164 -118 227 -149 378 -185 812 -168 1123 43 92 63 278 275 250 285 -5 2 -51
-26 -102 -62 -485 -335 -1087 -325 -1487 24 l-35 30 37 38 c21 21 34 41 31 45
-9 9 -10 9 -59 -7z"/>
</g>
</svg>
